<?xml version="1.0" standalone="no"?><!DOCTYPE svg PUBLIC "-//W3C//DTD SVG 1.1//EN" "http://www.w3.org/Graphics/SVG/1.1/DTD/svg11.dtd"><svg t="1674709836183" class="icon" viewBox="0 0 1024 1024" version="1.1" xmlns="http://www.w3.org/2000/svg" p-id="2714" xmlns:xlink="http://www.w3.org/1999/xlink" width="200" height="200"><path d="M803.08 169.78l-129.41 0 0-23c-0.038-12.985-10.555-23.502-23.54-23.54l-286.92 0c-12.985 0.038-23.502 10.555-23.54 23.54l0 23-118.75 0c-22.87 0-41.58 21.6-41.58 48s18.71 48 41.58 48l582.16 0c22.87 0 41.58-21.6 41.58-48s-18.66-48-41.58-48zM233.36 824.55c0.126 42.037 34.173 76.084 76.21 76.21l404.86 0c42.037-0.126 76.084-34.173 76.21-76.21l0-504.25-557.28 0 0 504.25zM585.67 418.19c0-22.87 21.6-41.58 48-41.58s48 18.71 48 41.58l0 377.42c0 22.87-21.6 41.58-48 41.58s-48-18.71-48-41.58l0-377.42zM342.34 418.19c0-22.87 21.6-41.58 48-41.58s48 18.71 48 41.58l0 377.42c0 22.87-21.6 41.58-48 41.58s-48-18.71-48-41.58l0-377.42z" fill="#272636" p-id="2715"></path></svg>